<svg xmlns="http://www.w3.org/2000/svg" xmlns:xlink="http://www.w3.org/1999/xlink" width="850" zoomAndPan="magnify" viewBox="0 0 637.5 329.999987" height="440" preserveAspectRatio="xMidYMid meet" version="1.0"><defs><filter x="0%" y="0%" width="100%" height="100%" id="23d249e473"><feColorMatrix values="0 0 0 0 1 0 0 0 0 1 0 0 0 0 1 0 0 0 1 0" color-interpolation-filters="sRGB"/></filter><g/><clipPath id="1b304f0c71"><path d="M 0 0.128906 L 637 0.128906 L 637 329.871094 L 0 329.871094 Z M 0 0.128906 " clip-rule="nonzero"/></clipPath><clipPath id="5fa1e79c88"><path d="M 0 0.128906 L 637 0.128906 L 637 329.871094 L 0 329.871094 Z M 0 0.128906 " clip-rule="nonzero"/></clipPath><clipPath id="3c5fcb7ba4"><path d="M 0 0.128906 L 637 0.128906 L 637 329.871094 L 0 329.871094 Z M 0 0.128906 " clip-rule="nonzero"/></clipPath><clipPath id="9a3bab26b5"><path d="M 0 0.128906 L 637 0.128906 L 637 329.871094 L 0 329.871094 Z M 0 0.128906 " clip-rule="nonzero"/></clipPath><linearGradient x1="-3.843698" gradientTransform="matrix(2.999624, 0, 0, 3.007728, 11.529648, -13.953322)" y1="59.5" x2="208.516399" gradientUnits="userSpaceOnUse" y2="59.5" id="66e97597ea"><stop stop-opacity="1" stop-color="rgb(46.669006%, 35.289001%, 9.799194%)" offset="0"/><stop stop-opacity="1" stop-color="rgb(46.669006%, 35.289001%, 9.799194%)" offset="0.015625"/><stop stop-opacity="1" stop-color="rgb(46.754456%, 35.365295%, 9.869385%)" offset="0.0234375"/><stop stop-opacity="1" stop-color="rgb(46.963501%, 35.552979%, 10.041809%)" offset="0.03125"/><stop stop-opacity="1" stop-color="rgb(47.213745%, 35.777283%, 10.246277%)" offset="0.0390625"/><stop stop-opacity="1" stop-color="rgb(47.462463%, 36.001587%, 10.450745%)" offset="0.046875"/><stop stop-opacity="1" stop-color="rgb(47.712708%, 36.225891%, 10.655212%)" offset="0.0546875"/><stop stop-opacity="1" stop-color="rgb(47.961426%, 36.450195%, 10.861206%)" offset="0.0625"/><stop stop-opacity="1" stop-color="rgb(48.21167%, 36.6745%, 11.065674%)" offset="0.0703125"/><stop stop-opacity="1" stop-color="rgb(48.460388%, 36.897278%, 11.270142%)" offset="0.078125"/><stop stop-opacity="1" stop-color="rgb(48.710632%, 37.121582%, 11.474609%)" offset="0.0859375"/><stop stop-opacity="1" stop-color="rgb(48.959351%, 37.345886%, 11.679077%)" offset="0.09375"/><stop stop-opacity="1" stop-color="rgb(49.209595%, 37.57019%, 11.885071%)" offset="0.101563"/><stop stop-opacity="1" stop-color="rgb(49.458313%, 37.794495%, 12.089539%)" offset="0.109375"/><stop stop-opacity="1" stop-color="rgb(49.708557%, 38.018799%, 12.294006%)" offset="0.117188"/><stop stop-opacity="1" stop-color="rgb(49.958801%, 38.241577%, 12.498474%)" offset="0.125"/><stop stop-opacity="1" stop-color="rgb(50.20752%, 38.465881%, 12.702942%)" offset="0.132813"/><stop stop-opacity="1" stop-color="rgb(50.457764%, 38.690186%, 12.908936%)" offset="0.140625"/><stop stop-opacity="1" stop-color="rgb(50.706482%, 38.91449%, 13.113403%)" offset="0.148438"/><stop stop-opacity="1" stop-color="rgb(50.956726%, 39.138794%, 13.317871%)" offset="0.15625"/><stop stop-opacity="1" stop-color="rgb(51.205444%, 39.363098%, 13.522339%)" offset="0.164063"/><stop stop-opacity="1" stop-color="rgb(51.455688%, 39.585876%, 13.728333%)" offset="0.171875"/><stop stop-opacity="1" stop-color="rgb(51.704407%, 39.810181%, 13.9328%)" offset="0.179688"/><stop stop-opacity="1" stop-color="rgb(51.954651%, 40.034485%, 14.137268%)" offset="0.1875"/><stop stop-opacity="1" stop-color="rgb(52.203369%, 40.258789%, 14.341736%)" offset="0.195313"/><stop stop-opacity="1" stop-color="rgb(52.453613%, 40.483093%, 14.546204%)" offset="0.203125"/><stop stop-opacity="1" stop-color="rgb(52.702332%, 40.707397%, 14.752197%)" offset="0.210938"/><stop stop-opacity="1" stop-color="rgb(52.952576%, 40.930176%, 14.956665%)" offset="0.21875"/><stop stop-opacity="1" stop-color="rgb(53.201294%, 41.15448%, 15.161133%)" offset="0.226563"/><stop stop-opacity="1" stop-color="rgb(53.451538%, 41.378784%, 15.365601%)" offset="0.234375"/><stop stop-opacity="1" stop-color="rgb(53.700256%, 41.603088%, 15.570068%)" offset="0.242188"/><stop stop-opacity="1" stop-color="rgb(53.9505%, 41.827393%, 15.776062%)" offset="0.25"/><stop stop-opacity="1" stop-color="rgb(54.199219%, 42.051697%, 15.98053%)" offset="0.257813"/><stop stop-opacity="1" stop-color="rgb(54.449463%, 42.274475%, 16.184998%)" offset="0.265625"/><stop stop-opacity="1" stop-color="rgb(54.698181%, 42.498779%, 16.389465%)" offset="0.273438"/><stop stop-opacity="1" stop-color="rgb(54.948425%, 42.723083%, 16.593933%)" offset="0.28125"/><stop stop-opacity="1" stop-color="rgb(55.197144%, 42.947388%, 16.799927%)" offset="0.289063"/><stop stop-opacity="1" stop-color="rgb(55.447388%, 43.171692%, 17.004395%)" offset="0.296875"/><stop stop-opacity="1" stop-color="rgb(55.696106%, 43.39447%, 17.208862%)" offset="0.304688"/><stop stop-opacity="1" stop-color="rgb(55.94635%, 43.618774%, 17.41333%)" offset="0.3125"/><stop stop-opacity="1" stop-color="rgb(56.195068%, 43.843079%, 17.617798%)" offset="0.320312"/><stop stop-opacity="1" stop-color="rgb(56.445312%, 44.067383%, 17.823792%)" offset="0.328125"/><stop stop-opacity="1" stop-color="rgb(56.694031%, 44.291687%, 18.028259%)" offset="0.335938"/><stop stop-opacity="1" stop-color="rgb(56.944275%, 44.515991%, 18.232727%)" offset="0.34375"/><stop stop-opacity="1" stop-color="rgb(57.192993%, 44.73877%, 18.437195%)" offset="0.351562"/><stop stop-opacity="1" stop-color="rgb(57.443237%, 44.963074%, 18.643188%)" offset="0.359375"/><stop stop-opacity="1" stop-color="rgb(57.691956%, 45.187378%, 18.847656%)" offset="0.367188"/><stop stop-opacity="1" stop-color="rgb(57.9422%, 45.411682%, 19.052124%)" offset="0.375"/><stop stop-opacity="1" stop-color="rgb(58.190918%, 45.635986%, 19.256592%)" offset="0.382813"/><stop stop-opacity="1" stop-color="rgb(58.441162%, 45.860291%, 19.46106%)" offset="0.390625"/><stop stop-opacity="1" stop-color="rgb(58.68988%, 46.083069%, 19.667053%)" offset="0.398438"/><stop stop-opacity="1" stop-color="rgb(58.940125%, 46.307373%, 19.871521%)" offset="0.40625"/><stop stop-opacity="1" stop-color="rgb(59.188843%, 46.531677%, 20.075989%)" offset="0.414063"/><stop stop-opacity="1" stop-color="rgb(59.439087%, 46.755981%, 20.280457%)" offset="0.421875"/><stop stop-opacity="1" stop-color="rgb(59.687805%, 46.980286%, 20.484924%)" offset="0.429688"/><stop stop-opacity="1" stop-color="rgb(59.938049%, 47.20459%, 20.690918%)" offset="0.4375"/><stop stop-opacity="1" stop-color="rgb(60.186768%, 47.427368%, 20.895386%)" offset="0.445313"/><stop stop-opacity="1" stop-color="rgb(60.437012%, 47.651672%, 21.099854%)" offset="0.453125"/><stop stop-opacity="1" stop-color="rgb(60.687256%, 47.875977%, 21.304321%)" offset="0.460938"/><stop stop-opacity="1" stop-color="rgb(60.935974%, 48.100281%, 21.508789%)" offset="0.46875"/><stop stop-opacity="1" stop-color="rgb(61.186218%, 48.324585%, 21.714783%)" offset="0.476563"/><stop stop-opacity="1" stop-color="rgb(61.434937%, 48.548889%, 21.91925%)" offset="0.484375"/><stop stop-opacity="1" stop-color="rgb(61.685181%, 48.771667%, 22.123718%)" offset="0.492188"/><stop stop-opacity="1" stop-color="rgb(61.933899%, 48.995972%, 22.328186%)" offset="0.5"/><stop stop-opacity="1" stop-color="rgb(62.184143%, 49.220276%, 22.53418%)" offset="0.507813"/><stop stop-opacity="1" stop-color="rgb(62.432861%, 49.44458%, 22.738647%)" offset="0.515625"/><stop stop-opacity="1" stop-color="rgb(62.683105%, 49.668884%, 22.943115%)" offset="0.523438"/><stop stop-opacity="1" stop-color="rgb(62.931824%, 49.893188%, 23.147583%)" offset="0.53125"/><stop stop-opacity="1" stop-color="rgb(63.182068%, 50.115967%, 23.352051%)" offset="0.539063"/><stop stop-opacity="1" stop-color="rgb(63.430786%, 50.340271%, 23.558044%)" offset="0.546875"/><stop stop-opacity="1" stop-color="rgb(63.68103%, 50.564575%, 23.762512%)" offset="0.554688"/><stop stop-opacity="1" stop-color="rgb(63.929749%, 50.788879%, 23.96698%)" offset="0.5625"/><stop stop-opacity="1" stop-color="rgb(64.179993%, 51.013184%, 24.171448%)" offset="0.570313"/><stop stop-opacity="1" stop-color="rgb(64.428711%, 51.237488%, 24.375916%)" offset="0.578125"/><stop stop-opacity="1" stop-color="rgb(64.678955%, 51.460266%, 24.581909%)" offset="0.585938"/><stop stop-opacity="1" stop-color="rgb(64.927673%, 51.68457%, 24.786377%)" offset="0.59375"/><stop stop-opacity="1" stop-color="rgb(65.177917%, 51.908875%, 24.990845%)" offset="0.601563"/><stop stop-opacity="1" stop-color="rgb(65.426636%, 52.133179%, 25.195312%)" offset="0.609375"/><stop stop-opacity="1" stop-color="rgb(65.67688%, 52.357483%, 25.39978%)" offset="0.617188"/><stop stop-opacity="1" stop-color="rgb(65.925598%, 52.580261%, 25.605774%)" offset="0.625"/><stop stop-opacity="1" stop-color="rgb(66.175842%, 52.804565%, 25.810242%)" offset="0.632812"/><stop stop-opacity="1" stop-color="rgb(66.424561%, 53.02887%, 26.014709%)" offset="0.640625"/><stop stop-opacity="1" stop-color="rgb(66.674805%, 53.253174%, 26.219177%)" offset="0.648438"/><stop stop-opacity="1" stop-color="rgb(66.923523%, 53.477478%, 26.425171%)" offset="0.65625"/><stop stop-opacity="1" stop-color="rgb(67.173767%, 53.701782%, 26.629639%)" offset="0.664062"/><stop stop-opacity="1" stop-color="rgb(67.422485%, 53.924561%, 26.834106%)" offset="0.671875"/><stop stop-opacity="1" stop-color="rgb(67.672729%, 54.148865%, 27.038574%)" offset="0.679688"/><stop stop-opacity="1" stop-color="rgb(67.921448%, 54.373169%, 27.243042%)" offset="0.6875"/><stop stop-opacity="1" stop-color="rgb(68.171692%, 54.597473%, 27.449036%)" offset="0.695312"/><stop stop-opacity="1" stop-color="rgb(68.42041%, 54.821777%, 27.653503%)" offset="0.703125"/><stop stop-opacity="1" stop-color="rgb(68.670654%, 55.046082%, 27.857971%)" offset="0.710938"/><stop stop-opacity="1" stop-color="rgb(68.919373%, 55.26886%, 28.062439%)" offset="0.71875"/><stop stop-opacity="1" stop-color="rgb(69.169617%, 55.493164%, 28.266907%)" offset="0.726562"/><stop stop-opacity="1" stop-color="rgb(69.418335%, 55.717468%, 28.4729%)" offset="0.734375"/><stop stop-opacity="1" stop-color="rgb(69.668579%, 55.941772%, 28.677368%)" offset="0.742188"/><stop stop-opacity="1" stop-color="rgb(69.917297%, 56.166077%, 28.881836%)" offset="0.75"/><stop stop-opacity="1" stop-color="rgb(70.167542%, 56.390381%, 29.086304%)" offset="0.757813"/><stop stop-opacity="1" stop-color="rgb(70.41626%, 56.613159%, 29.290771%)" offset="0.765625"/><stop stop-opacity="1" stop-color="rgb(70.666504%, 56.837463%, 29.496765%)" offset="0.773438"/><stop stop-opacity="1" stop-color="rgb(70.916748%, 57.061768%, 29.701233%)" offset="0.78125"/><stop stop-opacity="1" stop-color="rgb(71.165466%, 57.286072%, 29.905701%)" offset="0.789063"/><stop stop-opacity="1" stop-color="rgb(71.41571%, 57.510376%, 30.110168%)" offset="0.796875"/><stop stop-opacity="1" stop-color="rgb(71.664429%, 57.73468%, 30.316162%)" offset="0.804688"/><stop stop-opacity="1" stop-color="rgb(71.914673%, 57.957458%, 30.52063%)" offset="0.8125"/><stop stop-opacity="1" stop-color="rgb(72.163391%, 58.181763%, 30.725098%)" offset="0.820313"/><stop stop-opacity="1" stop-color="rgb(72.413635%, 58.406067%, 30.929565%)" offset="0.828125"/><stop stop-opacity="1" stop-color="rgb(72.662354%, 58.630371%, 31.134033%)" offset="0.835938"/><stop stop-opacity="1" stop-color="rgb(72.912598%, 58.854675%, 31.340027%)" offset="0.84375"/><stop stop-opacity="1" stop-color="rgb(73.161316%, 59.078979%, 31.544495%)" offset="0.851563"/><stop stop-opacity="1" stop-color="rgb(73.41156%, 59.301758%, 31.748962%)" offset="0.859375"/><stop stop-opacity="1" stop-color="rgb(73.660278%, 59.526062%, 31.95343%)" offset="0.867188"/><stop stop-opacity="1" stop-color="rgb(73.910522%, 59.750366%, 32.157898%)" offset="0.875"/><stop stop-opacity="1" stop-color="rgb(74.159241%, 59.97467%, 32.363892%)" offset="0.882813"/><stop stop-opacity="1" stop-color="rgb(74.409485%, 60.198975%, 32.568359%)" offset="0.890625"/><stop stop-opacity="1" stop-color="rgb(74.658203%, 60.421753%, 32.772827%)" offset="0.898438"/><stop stop-opacity="1" stop-color="rgb(74.908447%, 60.646057%, 32.977295%)" offset="0.90625"/><stop stop-opacity="1" stop-color="rgb(75.157166%, 60.870361%, 33.181763%)" offset="0.914063"/><stop stop-opacity="1" stop-color="rgb(75.40741%, 61.094666%, 33.387756%)" offset="0.921875"/><stop stop-opacity="1" stop-color="rgb(75.656128%, 61.31897%, 33.592224%)" offset="0.929688"/><stop stop-opacity="1" stop-color="rgb(75.906372%, 61.543274%, 33.796692%)" offset="0.9375"/><stop stop-opacity="1" stop-color="rgb(76.15509%, 61.766052%, 34.00116%)" offset="0.945313"/><stop stop-opacity="1" stop-color="rgb(76.405334%, 61.990356%, 34.207153%)" offset="0.953125"/><stop stop-opacity="1" stop-color="rgb(76.654053%, 62.214661%, 34.411621%)" offset="0.960938"/><stop stop-opacity="1" stop-color="rgb(76.904297%, 62.438965%, 34.616089%)" offset="0.96875"/><stop stop-opacity="1" stop-color="rgb(77.139282%, 62.649536%, 34.80835%)" offset="1"/></linearGradient><clipPath id="2ee5ca17b5"><rect x="0" width="637" y="0" height="330"/></clipPath><clipPath id="1230493c76"><path d="M 0 0.128906 L 637 0.128906 L 637 329.871094 L 0 329.871094 Z M 0 0.128906 " clip-rule="nonzero"/></clipPath><clipPath id="481692528d"><path d="M 0 7 L 200 7 L 200 328 L 0 328 Z M 0 7 " clip-rule="nonzero"/></clipPath><clipPath id="56744f6124"><rect x="0" width="637" y="0" height="330"/></clipPath><clipPath id="cd6c574ab5"><rect x="0" width="637" y="0" height="330"/></clipPath><mask id="f2831ba695"><g filter="url(#23d249e473)"><g transform="matrix(1, 0, 0, 1, 0, -0.000000000000061118)"><g clip-path="url(#cd6c574ab5)"><g clip-path="url(#1230493c76)"><g transform="matrix(1, 0, 0, 1, 0, -0.000000000000061118)"><g clip-path="url(#56744f6124)"><g clip-path="url(#481692528d)"><g fill="#000000" fill-opacity="1"><g transform="translate(13.151816, 241.583449)"><g><path d="M 126.078125 -123.515625 C 125.734375 -123.859375 125.429688 -124.203125 125.171875 -124.546875 C 124.921875 -124.890625 124.625 -125.226562 124.28125 -125.5625 C 125.988281 -128.644531 127.695312 -131.722656 129.40625 -134.796875 C 131.125 -137.867188 132.835938 -140.941406 134.546875 -144.015625 C 137.273438 -148.628906 140.132812 -153.242188 143.125 -157.859375 C 146.113281 -162.472656 148.804688 -167.253906 151.203125 -172.203125 C 153.242188 -176.140625 155.078125 -180.195312 156.703125 -184.375 C 158.328125 -188.5625 159.910156 -192.789062 161.453125 -197.0625 C 162.128906 -198.945312 162.550781 -201 162.71875 -203.21875 C 162.894531 -205.4375 162.984375 -207.570312 162.984375 -209.625 C 162.640625 -214.914062 160.882812 -218.972656 157.71875 -221.796875 C 154.5625 -224.617188 150.421875 -225.859375 145.296875 -225.515625 C 142.566406 -225.335938 139.878906 -224.953125 137.234375 -224.359375 C 134.585938 -223.765625 131.984375 -223.039062 129.421875 -222.1875 C 122.066406 -219.957031 114.972656 -217.132812 108.140625 -213.71875 C 101.304688 -210.300781 94.726562 -206.457031 88.40625 -202.1875 C 77.988281 -195.019531 67.910156 -187.332031 58.171875 -179.125 C 48.429688 -170.925781 39.117188 -162.210938 30.234375 -152.984375 C 27.671875 -150.253906 25.191406 -147.351562 22.796875 -144.28125 C 20.410156 -141.207031 18.28125 -137.960938 16.40625 -134.546875 C 8.71875 -121.046875 11.019531 -109.679688 23.3125 -100.453125 C 27.070312 -97.722656 30.957031 -95.160156 34.96875 -92.765625 C 38.988281 -90.378906 43.132812 -88.160156 47.40625 -86.109375 C 54.070312 -83.035156 60.863281 -80.128906 67.78125 -77.390625 C 74.695312 -74.660156 81.570312 -71.84375 88.40625 -68.9375 C 95.582031 -65.863281 102.757812 -62.742188 109.9375 -59.578125 C 117.113281 -56.421875 124.117188 -53.132812 130.953125 -49.71875 C 135.054688 -47.664062 138.984375 -45.398438 142.734375 -42.921875 C 146.492188 -40.441406 150.082031 -37.835938 153.5 -35.109375 C 160.675781 -29.472656 165.457031 -22.8125 167.84375 -15.125 C 170.238281 -7.4375 169.390625 1.273438 165.296875 11.015625 C 164.953125 11.867188 164.609375 12.765625 164.265625 13.703125 C 163.921875 14.648438 163.492188 15.71875 162.984375 16.90625 C 164.179688 17.25 165.25 17.59375 166.1875 17.9375 C 167.125 18.28125 168.273438 18.625 169.640625 18.96875 C 165.890625 19.644531 162.734375 20.921875 160.171875 22.796875 C 157.609375 24.679688 155.210938 26.90625 152.984375 29.46875 C 139.492188 44.5 124.289062 56.582031 107.375 65.71875 C 90.457031 74.863281 72.09375 81.234375 52.28125 84.828125 C 48.863281 85.503906 45.359375 85.84375 41.765625 85.84375 C 38.179688 85.84375 34.679688 85.675781 31.265625 85.34375 C 29.046875 85.164062 26.820312 84.609375 24.59375 83.671875 C 22.375 82.734375 20.238281 81.75 18.1875 80.71875 C 16.65625 79.863281 15.800781 78.625 15.625 77 C 15.457031 75.382812 15.972656 73.976562 17.171875 72.78125 C 18.535156 71.070312 20.03125 69.488281 21.65625 68.03125 C 23.28125 66.582031 24.945312 65.347656 26.65625 64.328125 C 29.5625 62.617188 32.507812 60.992188 35.5 59.453125 C 38.488281 57.910156 41.429688 56.546875 44.328125 55.359375 C 58.515625 49.035156 72.867188 43.265625 87.390625 38.046875 C 101.910156 32.835938 116.6875 28.441406 131.71875 24.859375 C 135.3125 24.003906 138.21875 22.59375 140.4375 20.625 C 142.65625 18.664062 144.535156 16.0625 146.078125 12.8125 C 149.316406 5.46875 150.296875 -1.617188 149.015625 -8.453125 C 147.734375 -15.285156 144.191406 -21.4375 138.390625 -26.90625 C 133.085938 -31.6875 127.273438 -35.617188 120.953125 -38.703125 C 115.148438 -41.773438 109.210938 -44.675781 103.140625 -47.40625 C 97.078125 -50.144531 90.972656 -52.796875 84.828125 -55.359375 C 76.453125 -58.941406 67.992188 -62.398438 59.453125 -65.734375 C 50.910156 -69.066406 42.453125 -72.523438 34.078125 -76.109375 C 29.804688 -77.992188 25.578125 -80.003906 21.390625 -82.140625 C 17.210938 -84.273438 13.15625 -86.625 9.21875 -89.1875 C 6.320312 -91.0625 3.546875 -93.191406 0.890625 -95.578125 C -1.753906 -97.972656 -4.269531 -100.453125 -6.65625 -103.015625 C -12.976562 -110.191406 -14.519531 -118.222656 -11.28125 -127.109375 C -10.25 -130.015625 -9.050781 -132.875 -7.6875 -135.6875 C -6.320312 -138.507812 -4.695312 -141.203125 -2.8125 -143.765625 C -0.59375 -146.835938 1.835938 -149.828125 4.484375 -152.734375 C 7.128906 -155.640625 9.90625 -158.457031 12.8125 -161.1875 C 30.925781 -178.269531 50.144531 -193.476562 70.46875 -206.8125 C 79.007812 -212.445312 87.894531 -217.351562 97.125 -221.53125 C 106.351562 -225.71875 115.921875 -229.007812 125.828125 -231.40625 C 131.117188 -232.769531 136.367188 -233.582031 141.578125 -233.84375 C 146.796875 -234.101562 152.050781 -233.972656 157.34375 -233.453125 C 159.050781 -233.285156 160.585938 -233.03125 161.953125 -232.6875 C 171.015625 -230.289062 177.335938 -226.0625 180.921875 -220 C 184.515625 -213.9375 185.03125 -206.378906 182.46875 -197.328125 C 181.09375 -192.203125 179.25 -187.242188 176.9375 -182.453125 C 174.632812 -177.671875 171.773438 -173.234375 168.359375 -169.140625 C 162.554688 -161.960938 156.535156 -154.867188 150.296875 -147.859375 C 144.066406 -140.859375 137.789062 -133.851562 131.46875 -126.84375 C 130.78125 -126.164062 129.921875 -125.566406 128.890625 -125.046875 C 127.867188 -124.535156 126.929688 -124.023438 126.078125 -123.515625 Z M 36.90625 76.109375 C 41.851562 76.960938 47.785156 76.75 54.703125 75.46875 C 61.628906 74.1875 68.9375 72.050781 76.625 69.0625 C 84.3125 66.070312 91.828125 62.441406 99.171875 58.171875 C 106.515625 53.898438 113.175781 49.328125 119.15625 44.453125 C 125.144531 39.585938 129.847656 34.59375 133.265625 29.46875 C 131.890625 29.8125 130.734375 30.109375 129.796875 30.359375 C 128.859375 30.617188 127.960938 30.835938 127.109375 31.015625 C 114.117188 35.285156 101.300781 40.066406 88.65625 45.359375 C 76.019531 50.648438 63.722656 56.457031 51.765625 62.78125 C 49.546875 63.976562 47.367188 65.34375 45.234375 66.875 C 43.097656 68.414062 41.003906 69.867188 38.953125 71.234375 C 38.265625 71.753906 37.625 72.394531 37.03125 73.15625 C 36.4375 73.925781 36.394531 74.910156 36.90625 76.109375 Z M 36.90625 76.109375 "/></g></g></g></g><g fill="#000000" fill-opacity="1"><g transform="translate(202.530354, 241.583449)"><g><path d="M 88.671875 -42.28125 C 88.671875 -42.28125 89.351562 -42.109375 90.71875 -41.765625 C 90.550781 -40.910156 90.46875 -39.972656 90.46875 -38.953125 C 90.46875 -37.929688 90.296875 -36.992188 89.953125 -36.140625 C 88.753906 -34.253906 87.515625 -32.328125 86.234375 -30.359375 C 84.953125 -28.398438 83.539062 -26.566406 82 -24.859375 C 72.945312 -15.117188 62.523438 -7.429688 50.734375 -1.796875 C 45.609375 0.597656 40.351562 1.960938 34.96875 2.296875 C 29.59375 2.640625 24.171875 2.046875 18.703125 0.515625 C 11.867188 -1.367188 6.703125 -4.957031 3.203125 -10.25 C -0.296875 -15.539062 -1.789062 -22.117188 -1.28125 -29.984375 C -0.769531 -38.867188 1.148438 -47.023438 4.484375 -54.453125 C 7.816406 -61.890625 12.382812 -68.597656 18.1875 -74.578125 C 25.539062 -82.265625 33.914062 -83.882812 43.3125 -79.4375 C 47.070312 -77.726562 49.59375 -75.164062 50.875 -71.75 C 52.15625 -68.332031 51.941406 -64.578125 50.234375 -60.484375 C 49.378906 -58.085938 48.222656 -55.820312 46.765625 -53.6875 C 45.316406 -51.550781 43.820312 -49.546875 42.28125 -47.671875 C 35.28125 -39.640625 26.566406 -33.570312 16.140625 -29.46875 C 15.460938 -26.21875 15.460938 -23.3125 16.140625 -20.75 C 16.828125 -18.1875 17.769531 -15.796875 18.96875 -13.578125 C 20.5 -11.015625 22.289062 -9.050781 24.34375 -7.6875 C 26.394531 -6.320312 28.875 -5.8125 31.78125 -6.15625 C 34.164062 -6.488281 36.640625 -6.953125 39.203125 -7.546875 C 41.765625 -8.148438 44.160156 -8.96875 46.390625 -10 C 53.390625 -13.070312 60.003906 -16.867188 66.234375 -21.390625 C 72.472656 -25.921875 78.15625 -31.265625 83.28125 -37.421875 C 84.132812 -38.273438 85.03125 -39.082031 85.96875 -39.84375 C 86.914062 -40.613281 87.816406 -41.425781 88.671875 -42.28125 Z M 34.078125 -70.46875 C 29.804688 -67.394531 26.472656 -63.679688 24.078125 -59.328125 C 21.691406 -54.972656 19.898438 -49.289062 18.703125 -42.28125 C 22.296875 -44.84375 25.285156 -47.660156 27.671875 -50.734375 C 30.066406 -53.816406 32.203125 -57.234375 34.078125 -60.984375 C 34.765625 -62.359375 35.234375 -63.851562 35.484375 -65.46875 C 35.742188 -67.09375 35.273438 -68.757812 34.078125 -70.46875 Z M 34.078125 -70.46875 "/></g></g></g><g fill="#000000" fill-opacity="1"><g transform="translate(280.690739, 241.583449)"><g><path d="M 75.078125 -72.515625 C 76.796875 -65.347656 76.628906 -58.429688 74.578125 -51.765625 C 74.398438 -51.253906 73.96875 -50.613281 73.28125 -49.84375 C 72.601562 -49.070312 72.09375 -48.773438 71.75 -48.953125 C 69.695312 -49.285156 68.160156 -50.222656 67.140625 -51.765625 C 66.628906 -52.617188 66.242188 -53.644531 65.984375 -54.84375 C 65.734375 -56.039062 65.4375 -57.234375 65.09375 -58.421875 C 64.582031 -59.796875 64.066406 -61.25 63.546875 -62.78125 C 63.035156 -64.320312 62.441406 -66.03125 61.765625 -67.90625 C 60.566406 -66.707031 59.410156 -65.679688 58.296875 -64.828125 C 57.191406 -63.972656 56.210938 -63.035156 55.359375 -62.015625 C 51.765625 -57.398438 48.171875 -52.785156 44.578125 -48.171875 C 40.992188 -43.566406 37.410156 -38.867188 33.828125 -34.078125 C 31.097656 -30.492188 28.40625 -26.78125 25.75 -22.9375 C 23.101562 -19.09375 20.328125 -15.289062 17.421875 -11.53125 C 16.054688 -9.65625 14.5625 -7.90625 12.9375 -6.28125 C 11.3125 -4.65625 9.644531 -2.988281 7.9375 -1.28125 C 5.207031 1.445312 1.625 2.726562 -2.8125 2.5625 C -8.625 2.5625 -10.929688 -0.171875 -9.734375 -5.640625 C -9.054688 -8.878906 -7.945312 -12.207031 -6.40625 -15.625 C -2.476562 -25.03125 1.445312 -34.382812 5.375 -43.6875 C 9.3125 -53 13.328125 -62.269531 17.421875 -71.5 C 17.929688 -72.863281 18.484375 -74.144531 19.078125 -75.34375 C 19.679688 -76.539062 20.328125 -77.648438 21.015625 -78.671875 C 23.066406 -82.265625 26.484375 -83.117188 31.265625 -81.234375 C 30.921875 -75.085938 29.550781 -69.148438 27.15625 -63.421875 C 24.769531 -57.703125 23.40625 -51.335938 23.0625 -44.328125 C 24.601562 -46.035156 25.882812 -47.488281 26.90625 -48.6875 C 27.9375 -49.882812 28.878906 -50.910156 29.734375 -51.765625 C 32.972656 -55.691406 36.210938 -59.617188 39.453125 -63.546875 C 42.703125 -67.484375 45.953125 -71.328125 49.203125 -75.078125 C 52.617188 -79.179688 56.972656 -81.40625 62.265625 -81.75 C 69.273438 -82.4375 73.546875 -79.359375 75.078125 -72.515625 Z M 75.078125 -72.515625 "/></g></g></g><g fill="#000000" fill-opacity="1"><g transform="translate(364.745074, 241.583449)"><g><path d="M 88.671875 -42.28125 C 88.671875 -42.28125 89.351562 -42.109375 90.71875 -41.765625 C 90.550781 -40.910156 90.46875 -39.972656 90.46875 -38.953125 C 90.46875 -37.929688 90.296875 -36.992188 89.953125 -36.140625 C 88.753906 -34.253906 87.515625 -32.328125 86.234375 -30.359375 C 84.953125 -28.398438 83.539062 -26.566406 82 -24.859375 C 72.945312 -15.117188 62.523438 -7.429688 50.734375 -1.796875 C 45.609375 0.597656 40.351562 1.960938 34.96875 2.296875 C 29.59375 2.640625 24.171875 2.046875 18.703125 0.515625 C 11.867188 -1.367188 6.703125 -4.957031 3.203125 -10.25 C -0.296875 -15.539062 -1.789062 -22.117188 -1.28125 -29.984375 C -0.769531 -38.867188 1.148438 -47.023438 4.484375 -54.453125 C 7.816406 -61.890625 12.382812 -68.597656 18.1875 -74.578125 C 25.539062 -82.265625 33.914062 -83.882812 43.3125 -79.4375 C 47.070312 -77.726562 49.59375 -75.164062 50.875 -71.75 C 52.15625 -68.332031 51.941406 -64.578125 50.234375 -60.484375 C 49.378906 -58.085938 48.222656 -55.820312 46.765625 -53.6875 C 45.316406 -51.550781 43.820312 -49.546875 42.28125 -47.671875 C 35.28125 -39.640625 26.566406 -33.570312 16.140625 -29.46875 C 15.460938 -26.21875 15.460938 -23.3125 16.140625 -20.75 C 16.828125 -18.1875 17.769531 -15.796875 18.96875 -13.578125 C 20.5 -11.015625 22.289062 -9.050781 24.34375 -7.6875 C 26.394531 -6.320312 28.875 -5.8125 31.78125 -6.15625 C 34.164062 -6.488281 36.640625 -6.953125 39.203125 -7.546875 C 41.765625 -8.148438 44.160156 -8.96875 46.390625 -10 C 53.390625 -13.070312 60.003906 -16.867188 66.234375 -21.390625 C 72.472656 -25.921875 78.15625 -31.265625 83.28125 -37.421875 C 84.132812 -38.273438 85.03125 -39.082031 85.96875 -39.84375 C 86.914062 -40.613281 87.816406 -41.425781 88.671875 -42.28125 Z M 34.078125 -70.46875 C 29.804688 -67.394531 26.472656 -63.679688 24.078125 -59.328125 C 21.691406 -54.972656 19.898438 -49.289062 18.703125 -42.28125 C 22.296875 -44.84375 25.285156 -47.660156 27.671875 -50.734375 C 30.066406 -53.816406 32.203125 -57.234375 34.078125 -60.984375 C 34.765625 -62.359375 35.234375 -63.851562 35.484375 -65.46875 C 35.742188 -67.09375 35.273438 -68.757812 34.078125 -70.46875 Z M 34.078125 -70.46875 "/></g></g></g><g fill="#000000" fill-opacity="1"><g transform="translate(442.905459, 241.583449)"><g><path d="M 88.671875 -28.703125 C 92.765625 -31.265625 96.773438 -34.125 100.703125 -37.28125 C 104.640625 -40.445312 109.507812 -42.367188 115.3125 -43.046875 C 114.632812 -42.023438 114.125 -41.210938 113.78125 -40.609375 C 113.4375 -40.015625 113.09375 -39.546875 112.75 -39.203125 C 106.4375 -33.910156 100.117188 -28.613281 93.796875 -23.3125 C 87.472656 -18.019531 81.148438 -12.8125 74.828125 -7.6875 C 71.578125 -5.125 67.90625 -2.988281 63.8125 -1.28125 C 62.445312 -0.769531 60.953125 -0.46875 59.328125 -0.375 C 57.703125 -0.289062 56.207031 -0.335938 54.84375 -0.515625 C 50.394531 -1.023438 48.257812 -3.414062 48.4375 -7.6875 C 48.4375 -9.738281 48.5625 -11.832031 48.8125 -13.96875 C 49.070312 -16.101562 49.546875 -18.195312 50.234375 -20.25 C 52.109375 -26.226562 54.070312 -32.160156 56.125 -38.046875 C 58.175781 -43.941406 60.140625 -49.878906 62.015625 -55.859375 C 62.523438 -57.398438 63.164062 -58.984375 63.9375 -60.609375 C 64.707031 -62.234375 64.664062 -64.238281 63.8125 -66.625 C 61.414062 -64.570312 59.0625 -62.648438 56.75 -60.859375 C 54.445312 -59.066406 52.273438 -57.234375 50.234375 -55.359375 C 46.816406 -52.109375 43.441406 -48.816406 40.109375 -45.484375 C 36.773438 -42.148438 33.484375 -38.863281 30.234375 -35.625 C 28.191406 -33.738281 26.1875 -31.859375 24.21875 -29.984375 C 22.25 -28.109375 20.15625 -26.3125 17.9375 -24.59375 C 16.738281 -23.738281 15.457031 -22.925781 14.09375 -22.15625 C 12.726562 -21.394531 11.273438 -20.84375 9.734375 -20.5 C 5.460938 -19.644531 2.34375 -20.15625 0.375 -22.03125 C -1.582031 -23.914062 -1.960938 -27.078125 -0.765625 -31.515625 C 0.765625 -37.492188 2.425781 -43.472656 4.21875 -49.453125 C 6.019531 -55.429688 7.773438 -61.410156 9.484375 -67.390625 C 10.335938 -67.734375 11.144531 -68.078125 11.90625 -68.421875 C 12.675781 -68.765625 13.40625 -69.019531 14.09375 -69.1875 C 18.019531 -69.1875 20.625 -68.457031 21.90625 -67 C 23.1875 -65.550781 23.398438 -62.953125 22.546875 -59.203125 C 21.691406 -55.953125 20.707031 -52.578125 19.59375 -49.078125 C 18.488281 -45.578125 17.253906 -41.691406 15.890625 -37.421875 C 17.597656 -38.441406 18.878906 -39.207031 19.734375 -39.71875 C 20.585938 -40.226562 21.351562 -40.828125 22.03125 -41.515625 C 25.28125 -44.765625 28.570312 -48.050781 31.90625 -51.375 C 35.238281 -54.707031 38.613281 -57.910156 42.03125 -60.984375 C 44.9375 -63.722656 47.925781 -66.242188 51 -68.546875 C 54.070312 -70.859375 57.234375 -73.207031 60.484375 -75.59375 C 63.722656 -77.988281 67.734375 -79.101562 72.515625 -78.9375 C 79.691406 -78.757812 82.769531 -75.335938 81.75 -68.671875 C 81.40625 -66.628906 80.929688 -64.582031 80.328125 -62.53125 C 79.734375 -60.476562 79.097656 -58.425781 78.421875 -56.375 C 76.367188 -50.90625 74.273438 -45.4375 72.140625 -39.96875 C 70.003906 -34.507812 67.992188 -29.046875 66.109375 -23.578125 C 65.429688 -21.691406 64.832031 -19.765625 64.3125 -17.796875 C 63.800781 -15.835938 63.207031 -13.578125 62.53125 -11.015625 C 67.820312 -13.578125 72.472656 -16.476562 76.484375 -19.71875 C 80.503906 -22.96875 84.566406 -25.960938 88.671875 -28.703125 Z M 88.671875 -28.703125 "/></g></g></g><g fill="#000000" fill-opacity="1"><g transform="translate(545.667147, 241.583449)"><g><path d="M 88.671875 -42.28125 C 88.671875 -42.28125 89.351562 -42.109375 90.71875 -41.765625 C 90.550781 -40.910156 90.46875 -39.972656 90.46875 -38.953125 C 90.46875 -37.929688 90.296875 -36.992188 89.953125 -36.140625 C 88.753906 -34.253906 87.515625 -32.328125 86.234375 -30.359375 C 84.953125 -28.398438 83.539062 -26.566406 82 -24.859375 C 72.945312 -15.117188 62.523438 -7.429688 50.734375 -1.796875 C 45.609375 0.597656 40.351562 1.960938 34.96875 2.296875 C 29.59375 2.640625 24.171875 2.046875 18.703125 0.515625 C 11.867188 -1.367188 6.703125 -4.957031 3.203125 -10.25 C -0.296875 -15.539062 -1.789062 -22.117188 -1.28125 -29.984375 C -0.769531 -38.867188 1.148438 -47.023438 4.484375 -54.453125 C 7.816406 -61.890625 12.382812 -68.597656 18.1875 -74.578125 C 25.539062 -82.265625 33.914062 -83.882812 43.3125 -79.4375 C 47.070312 -77.726562 49.59375 -75.164062 50.875 -71.75 C 52.15625 -68.332031 51.941406 -64.578125 50.234375 -60.484375 C 49.378906 -58.085938 48.222656 -55.820312 46.765625 -53.6875 C 45.316406 -51.550781 43.820312 -49.546875 42.28125 -47.671875 C 35.28125 -39.640625 26.566406 -33.570312 16.140625 -29.46875 C 15.460938 -26.21875 15.460938 -23.3125 16.140625 -20.75 C 16.828125 -18.1875 17.769531 -15.796875 18.96875 -13.578125 C 20.5 -11.015625 22.289062 -9.050781 24.34375 -7.6875 C 26.394531 -6.320312 28.875 -5.8125 31.78125 -6.15625 C 34.164062 -6.488281 36.640625 -6.953125 39.203125 -7.546875 C 41.765625 -8.148438 44.160156 -8.96875 46.390625 -10 C 53.390625 -13.070312 60.003906 -16.867188 66.234375 -21.390625 C 72.472656 -25.921875 78.15625 -31.265625 83.28125 -37.421875 C 84.132812 -38.273438 85.03125 -39.082031 85.96875 -39.84375 C 86.914062 -40.613281 87.816406 -41.425781 88.671875 -42.28125 Z M 34.078125 -70.46875 C 29.804688 -67.394531 26.472656 -63.679688 24.078125 -59.328125 C 21.691406 -54.972656 19.898438 -49.289062 18.703125 -42.28125 C 22.296875 -44.84375 25.285156 -47.660156 27.671875 -50.734375 C 30.066406 -53.816406 32.203125 -57.234375 34.078125 -60.984375 C 34.765625 -62.359375 35.234375 -63.851562 35.484375 -65.46875 C 35.742188 -67.09375 35.273438 -68.757812 34.078125 -70.46875 Z M 34.078125 -70.46875 "/></g></g></g></g></g></g></g></g></g></mask><clipPath id="1bcc11ca22"><path d="M 0 0.128906 L 637 0.128906 L 637 329.871094 L 0 329.871094 Z M 0 0.128906 " clip-rule="nonzero"/></clipPath><clipPath id="9ca35d6af3"><rect x="0" width="637" y="0" height="330"/></clipPath><clipPath id="b09bbbe9dd"><rect x="0" width="637" y="0" height="330"/></clipPath><clipPath id="939de42d27"><rect x="0" width="637" y="0" height="330"/></clipPath></defs><g clip-path="url(#1b304f0c71)"><g transform="matrix(1, 0, 0, 1, 0, -0.000000000000061118)"><g clip-path="url(#939de42d27)"><g clip-path="url(#5fa1e79c88)"><g transform="matrix(1, 0, 0, 1, 0, -0.000000000000061118)"><g clip-path="url(#b09bbbe9dd)"><g clip-path="url(#3c5fcb7ba4)"><g mask="url(#f2831ba695)"><g transform="matrix(1, 0, 0, 1, 0, -0.000000000000061118)"><g clip-path="url(#9ca35d6af3)"><g clip-path="url(#1bcc11ca22)"><path fill="url(#66e97597ea)" d="M 0 0.128906 L 0 329.871094 L 637 329.871094 L 637 0.128906 Z M 0 0.128906 " fill-rule="nonzero"/></g></g></g></g></g></g></g></g></g></g></g></svg>